<svg width="39" height="39" viewBox="0 0 39 39" fill="none" xmlns="http://www.w3.org/2000/svg">
<path d="M0.753723 19.5038C0.755905 28.7276 7.46323 36.5813 16.5731 38.0269V24.9225H11.8162V19.5038H16.5787V15.3788C16.3658 13.4242 17.0335 11.4761 18.4005 10.063C19.7676 8.64991 21.6925 7.91817 23.6531 8.06627C25.0604 8.089 26.4641 8.21433 27.8531 8.44127V13.0519H25.4831C24.6672 12.945 23.8469 13.2145 23.2533 13.7844C22.6597 14.3543 22.357 15.1629 22.4306 15.9825V19.5038H27.6262L26.7956 24.9244H22.4306V38.0269C32.2827 36.4699 39.1914 27.4721 38.1516 17.552C37.1117 7.63196 28.4874 0.262389 18.5265 0.782232C8.56565 1.30207 0.755307 9.52935 0.753723 19.5038Z" fill="#10282E"/>
</svg>
