<svg width="39" height="38" viewBox="0 0 39 38" fill="none" xmlns="http://www.w3.org/2000/svg">
<path d="M19.5488 0.75C10.3743 0.748822 2.55343 7.40247 1.08453 16.4586C-0.384376 25.5148 4.93239 34.2993 13.6369 37.1981C14.5744 37.3669 14.91 36.7912 14.91 36.2962C14.91 35.8519 14.895 34.6744 14.8894 33.1087C9.68628 34.2337 8.58753 30.6 8.58753 30.6C8.245 29.4693 7.50861 28.4987 6.5119 27.8644C4.8244 26.7038 6.64128 26.73 6.64128 26.73C7.84255 26.8947 8.89981 27.6065 9.50441 28.6575C10.0162 29.588 10.8783 30.2755 11.8994 30.5674C12.9204 30.8593 14.0157 30.7313 14.9419 30.2119C15.0289 29.2631 15.451 28.3764 16.1325 27.7106C11.9813 27.24 7.61628 25.635 7.61628 18.4669C7.59324 16.6129 8.28172 14.8206 9.54003 13.4587C8.97069 11.845 9.03774 10.0748 9.72753 8.50875C9.72753 8.50875 11.2969 8.00438 14.8688 10.4231C17.9322 9.58314 21.1653 9.58314 24.2288 10.4231C27.8025 8.0025 29.37 8.50875 29.37 8.50875C30.063 10.0741 30.1301 11.8455 29.5575 13.4587C30.8204 14.8204 31.5084 16.6174 31.4775 18.4744C31.4775 25.6613 27.1088 27.24 22.9425 27.7031C23.8413 28.622 24.3022 29.8825 24.2082 31.1644C24.2082 33.6656 24.1857 35.6831 24.1857 36.2962C24.1857 36.7969 24.5194 37.3781 25.4738 37.1944C34.1747 34.2907 39.4857 25.5056 38.0138 16.4518C36.5419 7.3981 28.7214 0.747902 19.5488 0.75Z" fill="#10282E"/>
</svg>
