<svg width="35" height="35" viewBox="0 0 35 35" fill="none" xmlns="http://www.w3.org/2000/svg">
<path d="M19.375 34.375H11.875V11.875H19.375V15.625C20.9737 13.5911 23.3981 12.3786 25.9844 12.3194C30.6355 12.3452 34.3885 16.1301 34.375 20.7812V34.375H26.875V21.7188C26.5751 19.6237 24.7783 18.0692 22.6619 18.0737C21.7361 18.103 20.8623 18.5083 20.2421 19.1962C19.6218 19.884 19.3087 20.7949 19.375 21.7188V34.375ZM8.125 34.375H0.625V11.875H8.125V34.375ZM4.375 8.125C2.30393 8.125 0.625 6.44607 0.625 4.375C0.625 2.30393 2.30393 0.625 4.375 0.625C6.44607 0.625 8.125 2.30393 8.125 4.375C8.125 5.36956 7.72991 6.32339 7.02665 7.02665C6.32339 7.72991 5.36956 8.125 4.375 8.125Z" fill="#10282E"/>
</svg>
